# xmcd
#
# Track frame offsets: 
#        150
#        90267
#        114230
#        141920
#
# Disc length: 3292 seconds
#
# Revision: 5
# Processed by: cddbd v1.5.2PL0 Copyright (c) Steve Scherf et al.
# Submitted via: ExactAudioCopy v0.95b3
#
DISCID=270cda04
DTITLE=Miles Davis - On The Corner
DYEAR=1972
DGENRE=Jazz
TTITLE0=On The Corner - New York Girl - Thinkin of One Thing and Doin'
TTITLE0=Another - Vote for Miles
TTITLE1=Black Satin
TTITLE2=One and One
TTITLE3=Helen Butte - Mr Freedom X
EXTD=
EXTT0=
EXTT1=
EXTT2=
EXTT3=
PLAYORDER=
